<?xml version="1.0" standalone="no"?>
<!DOCTYPE svg PUBLIC "-//W3C//DTD SVG 20010904//EN"
 "http://www.w3.org/TR/2001/REC-SVG-20010904/DTD/svg10.dtd">
<svg version="1.0" xmlns="http://www.w3.org/2000/svg"
 width="149.000000pt" height="149.000000pt" viewBox="0 0 149.000000 149.000000"
 preserveAspectRatio="xMidYMid meet">
<metadata>
Created by potrace 1.14, written by Peter Selinger 2001-2017
</metadata>
<g transform="translate(0.000000,149.000000) scale(0.100000,-0.100000)"
fill="#000000" stroke="none">
<path d="M655 1438 c-157 -21 -286 -84 -401 -195 -47 -46 -134 -162 -134 -180
0 -4 -6 -20 -14 -34 -19 -37 -43 -116 -51 -167 -8 -48 -8 -186 -1 -217 46
-207 124 -333 271 -445 130 -98 265 -140 435 -136 190 5 348 74 476 208 70 72
143 187 159 248 0 3 4 14 8 25 28 87 38 217 22 310 -5 28 -10 55 -10 60 -5 50
-73 189 -124 255 -57 73 -73 89 -136 134 -153 111 -328 157 -500 134z m137
-405 c2 -5 31 -34 65 -67 l61 -58 69 18 c42 10 80 15 97 10 l29 -7 -24 -26
c-13 -14 -50 -38 -81 -54 -35 -18 -58 -36 -59 -47 -1 -9 -3 -30 -4 -47 -2 -16
-4 -52 -6 -79 -2 -42 -23 -85 -36 -73 -5 6 -11 41 -18 101 -8 76 -10 87 -21
87 -13 0 -88 -15 -99 -21 -6 -3 -21 -7 -33 -9 -4 0 -9 -9 -10 -18 -4 -43 -9
-57 -20 -61 -8 -2 -12 13 -12 45 -1 39 -7 55 -31 83 -34 41 -23 51 21 20 l31
-22 64 28 c36 16 65 33 65 38 0 5 -22 42 -50 82 -27 40 -50 76 -50 79 0 8 48
6 52 -2z m-45 -82 c6 -1 22 -15 34 -32 28 -40 9 -58 -30 -27 l-26 20 -3 -36
c-4 -43 -22 -38 -22 6 0 29 -1 30 -22 16 -13 -8 -32 -18 -42 -22 -19 -7 -19
-6 -1 14 33 37 -18 15 -67 -29 -34 -30 -35 -41 -5 -41 20 -1 20 -2 4 -11 -9
-5 -21 -8 -26 -4 -5 3 -16 -3 -23 -12 -7 -10 -21 -24 -31 -32 -15 -12 -17 -12
-14 5 14 69 87 156 143 169 11 3 35 9 54 13 19 5 42 8 50 6 8 -1 20 -3 27 -3z
m-85 -215 c5 -25 2 -30 -31 -43 -73 -29 -107 -47 -148 -75 -70 -51 -65 -98 15
-122 l47 -15 -56 0 c-64 -1 -102 21 -113 64 -10 39 25 105 78 150 27 22 53 45
59 50 7 6 34 22 61 37 l50 26 16 -21 c10 -12 19 -35 22 -51z m178 -2 c-1 -4 4
-10 11 -15 9 -5 10 -11 2 -21 -10 -12 -17 -47 -14 -75 1 -7 8 -13 16 -13 8 0
15 -4 15 -10 0 -5 -10 -10 -22 -10 -16 0 -29 -12 -45 -40 -12 -22 -18 -40 -14
-40 5 0 28 15 53 34 56 43 82 34 35 -12 -77 -74 -189 -89 -284 -38 -55 30 -98
79 -89 102 3 8 19 14 41 14 28 0 38 5 45 23 8 21 11 20 14 -5 1 -8 20 -14 49
-16 42 -3 47 -1 47 17 0 12 5 21 10 21 6 0 10 -9 10 -20 0 -17 7 -20 44 -20
46 0 56 11 56 69 0 21 -4 23 -35 19 -23 -3 -35 0 -35 8 0 8 16 14 38 16 20 2
38 9 38 16 3 23 6 27 11 15 2 -7 4 -15 3 -19z"/>
<path d="M552 568 c15 -22 78 -61 87 -53 2 3 -3 13 -11 22 -8 10 -18 26 -21
36 -4 11 -17 17 -38 17 -30 0 -31 -1 -17 -22z"/>
<path d="M627 570 c5 -20 48 -60 64 -60 5 0 9 18 9 40 0 40 0 40 -39 40 -34 0
-38 -2 -34 -20z"/>
<path d="M720 550 c0 -22 4 -40 9 -40 16 0 59 40 64 60 4 18 0 20 -34 20 -39
0 -39 0 -39 -40z"/>
</g>
</svg>
